# xmcd CD database file
#
# Track frame offsets:
#	150
#	15782
#	30875
#	45311
#	63129
#	83056
#	116815
#	132377
#	157176
#	177918
#	193088
#	218277
#	252527
#	256858
#	269524
#	290171
#	321051
#	331572
#
# Disc length: 4692 seconds
#
# Revision: 0
# Processed by: cddbd v1.5.1PL2 Copyright (c) Steve Scherf et al.
# Submitted via: Feurio! 1.68 - http://www.feurio.com
#
DISCID=f1125212
DTITLE=Das dritte Ohr - Zahltag - Himmel oder Hölle
DYEAR=1900
DGENRE=
TTITLE0=Maibock
TTITLE1=Disco Fuzzies
TTITLE2=Wenn die Sonne sinkt
TTITLE3=Mordwest-Stadt
TTITLE4=Zahltag
TTITLE5=Rita, Rita
TTITLE6=Bleib weg
TTITLE7=Schwarzer Wurm
TTITLE8=Kalte Wut
TTITLE9=Himmel oder Hölle
TTITLE10=Plapper-Popper
TTITLE11=Wach gelegen
TTITLE12=Morgenstund' hat Blei im Mund
TTITLE13=Nicht mein Tag
TTITLE14=Wo stehst Du
TTITLE15=Ich frag' mich, warum
TTITLE16=Vollmond
TTITLE17=Unsere Sache
EXTD=
EXTT0=
EXTT1=
EXTT2=
EXTT3=
EXTT4=
EXTT5=
EXTT6=
EXTT7=
EXTT8=
EXTT9=
EXTT10=
EXTT11=
EXTT12=
EXTT13=
EXTT14=
EXTT15=
EXTT16=
EXTT17=
PLAYORDER=
